<?xml version="1.0" encoding="UTF-8" standalone="no"?>
<!-- Created with Inkscape (http://www.inkscape.org/) -->

<svg
   width="60.959999mm"
   height="128.5mm"
   viewBox="0 0 60.960004 128.50002"
   version="1.1"
   id="svg8"
   inkscape:version="1.2 (dc2aeda, 2022-05-15)"
   sodipodi:docname="ChordSeq.svg"
   xmlns:inkscape="http://www.inkscape.org/namespaces/inkscape"
   xmlns:sodipodi="http://sodipodi.sourceforge.net/DTD/sodipodi-0.dtd"
   xmlns="http://www.w3.org/2000/svg"
   xmlns:svg="http://www.w3.org/2000/svg"
   xmlns:rdf="http://www.w3.org/1999/02/22-rdf-syntax-ns#"
   xmlns:cc="http://creativecommons.org/ns#"
   xmlns:dc="http://purl.org/dc/elements/1.1/">
  <defs
     id="defs2" />
  <sodipodi:namedview
     id="base"
     pagecolor="#ffffff"
     bordercolor="#666666"
     borderopacity="1.0"
     inkscape:pageopacity="0.0"
     inkscape:pageshadow="2"
     inkscape:zoom="1"
     inkscape:cx="127.5"
     inkscape:cy="247.5"
     inkscape:document-units="mm"
     inkscape:current-layer="layer2"
     showgrid="false"
     units="mm"
     inkscape:snap-bbox="true"
     inkscape:snap-page="true"
     inkscape:bbox-nodes="false"
     inkscape:snap-bbox-edge-midpoints="false"
     inkscape:window-width="1728"
     inkscape:window-height="1051"
     inkscape:window-x="0"
     inkscape:window-y="38"
     inkscape:window-maximized="0"
     inkscape:snap-bbox-midpoints="true"
     inkscape:snap-nodes="false"
     inkscape:showpageshadow="2"
     inkscape:pagecheckerboard="0"
     inkscape:deskcolor="#d1d1d1" />
  <metadata
     id="metadata5">
    <rdf:RDF>
      <cc:Work
         rdf:about="">
        <dc:format>image/svg+xml</dc:format>
        <dc:type
           rdf:resource="http://purl.org/dc/dcmitype/StillImage" />
      </cc:Work>
    </rdf:RDF>
  </metadata>
  <g
     inkscape:label="Layer 1"
     inkscape:groupmode="layer"
     id="layer1"
     transform="translate(0,-168.49998)">
    <rect
       style="display:inline;opacity:1;vector-effect:none;fill:#e6e6e6;fill-opacity:1;fill-rule:evenodd;stroke:none;stroke-width:0.918333;stroke-linecap:butt;stroke-linejoin:miter;stroke-miterlimit:4;stroke-dasharray:none;stroke-dashoffset:0;stroke-opacity:1;paint-order:normal"
       id="rect420"
       width="60.959999"
       height="128.5"
       x="5.9211732e-17"
       y="168.49997" />
    <g
       aria-label="-"
       id="text2119-8-1"
       style="font-size:3.175px;stroke-width:0.264583">
      <path
         d="m 53.012328,186.05091 h -0.967382 v -0.2806 h 0.967382 z"
         id="path3788" />
    </g>
    <g
       aria-label="+"
       id="text2119-3"
       style="font-size:3.175px;stroke-width:0.264583">
      <path
         d="m 41.769971,186.09552 h -0.844909 v 0.84491 h -0.257349 v -0.84491 h -0.84491 v -0.24805 h 0.84491 v -0.84491 h 0.257349 v 0.84491 h 0.844909 z"
         id="path3785" />
    </g>
    <g
       aria-label="Reset"
       id="text2119-8"
       style="font-size:3.175px;stroke-width:0.264583">
      <path
         d="m 18.902949,186.95154 h -0.398425 l -0.772046,-0.91778 h -0.432531 v 0.91778 h -0.306958 v -2.30839 h 0.646472 q 0.209289,0 0.348816,0.0279 0.139526,0.0263 0.251147,0.0961 0.125574,0.0791 0.195337,0.19998 0.07131,0.11938 0.07131,0.30386 0,0.2496 -0.125573,0.41858 -0.125574,0.16743 -0.345716,0.2527 z m -0.717785,-1.65882 q 0,-0.0992 -0.03566,-0.17518 -0.03411,-0.0775 -0.114722,-0.13022 -0.06666,-0.045 -0.158129,-0.062 -0.09147,-0.0186 -0.215491,-0.0186 h -0.361218 v 0.87127 h 0.310058 q 0.145728,0 0.254248,-0.0248 0.108521,-0.0264 0.184485,-0.0961 0.06976,-0.0651 0.102319,-0.14882 0.03411,-0.0853 0.03411,-0.2155 z"
         id="path3774" />
      <path
         d="m 20.54936,186.11593 h -1.275891 q 0,0.15968 0.04806,0.27905 0.04806,0.11783 0.131775,0.19379 0.08062,0.0744 0.190686,0.11162 0.111621,0.0372 0.244947,0.0372 0.176733,0 0.355017,-0.0698 0.179834,-0.0713 0.255798,-0.13952 h 0.0155 v 0.31781 q -0.147278,0.062 -0.300757,0.10387 -0.153479,0.0419 -0.322461,0.0419 -0.430981,0 -0.672827,-0.23255 -0.241846,-0.23409 -0.241846,-0.66352 0,-0.42478 0.230994,-0.67438 0.232544,-0.2496 0.610816,-0.2496 0.350366,0 0.539501,0.20464 0.190686,0.20464 0.190686,0.58136 z m -0.283703,-0.22324 q -0.0016,-0.22945 -0.116272,-0.35502 -0.113171,-0.12557 -0.345715,-0.12557 -0.234095,0 -0.373621,0.13797 -0.137976,0.13798 -0.15658,0.34262 z"
         id="path3776" />
      <path
         d="m 22.228328,186.45234 q 0,0.2372 -0.196888,0.38913 -0.195337,0.15193 -0.534851,0.15193 -0.192236,0 -0.353467,-0.045 -0.15968,-0.0465 -0.2682,-0.10077 v -0.32711 h 0.0155 q 0.137976,0.10387 0.306958,0.16588 0.168982,0.0605 0.324011,0.0605 0.192236,0 0.300757,-0.062 0.10852,-0.062 0.10852,-0.19534 0,-0.10232 -0.05891,-0.15503 -0.05891,-0.0527 -0.226343,-0.0899 -0.06201,-0.0139 -0.16278,-0.0325 -0.09922,-0.0186 -0.181385,-0.0403 -0.227893,-0.0605 -0.324011,-0.17673 -0.09457,-0.11782 -0.09457,-0.28836 0,-0.10697 0.04341,-0.20154 0.04496,-0.0946 0.134876,-0.16898 0.08682,-0.0729 0.220142,-0.11472 0.134875,-0.0434 0.300756,-0.0434 0.15503,0 0.31316,0.0388 0.15968,0.0372 0.2651,0.0915 v 0.31161 h -0.0155 q -0.111621,-0.0822 -0.271302,-0.13798 -0.15968,-0.0574 -0.313159,-0.0574 -0.15968,0 -0.269751,0.062 -0.11007,0.0605 -0.11007,0.18139 0,0.10697 0.06666,0.16123 0.06511,0.0543 0.21084,0.0884 0.08062,0.0186 0.179834,0.0372 0.100769,0.0186 0.167432,0.0341 0.203088,0.0465 0.313159,0.15968 0.110071,0.11472 0.110071,0.30385 z"
         id="path3778" />
      <path
         d="m 24.094881,186.11593 h -1.275892 q 0,0.15968 0.04806,0.27905 0.04806,0.11783 0.131774,0.19379 0.08062,0.0744 0.190686,0.11162 0.111622,0.0372 0.244947,0.0372 0.176733,0 0.355017,-0.0698 0.179834,-0.0713 0.255798,-0.13952 h 0.0155 v 0.31781 q -0.147278,0.062 -0.300757,0.10387 -0.153479,0.0419 -0.322461,0.0419 -0.430981,0 -0.672827,-0.23255 -0.241845,-0.23409 -0.241845,-0.66352 0,-0.42478 0.230993,-0.67438 0.232544,-0.2496 0.610816,-0.2496 0.350366,0 0.539502,0.20464 0.190686,0.20464 0.190686,0.58136 z m -0.283704,-0.22324 q -0.0016,-0.22945 -0.116272,-0.35502 -0.113171,-0.12557 -0.345715,-0.12557 -0.234095,0 -0.373621,0.13797 -0.137976,0.13798 -0.15658,0.34262 z"
         id="path3780" />
      <path
         d="m 25.435884,186.93604 q -0.08217,0.0217 -0.179834,0.0357 -0.09612,0.0139 -0.172083,0.0139 -0.2651,0 -0.403076,-0.14262 -0.137976,-0.14263 -0.137976,-0.45734 v -0.92087 h -0.196887 v -0.24495 h 0.196887 v -0.49764 h 0.291455 v 0.49764 h 0.601514 v 0.24495 H 24.83437 v 0.7891 q 0,0.13642 0.0062,0.21394 0.0062,0.076 0.04341,0.14262 0.03411,0.062 0.09302,0.0915 0.06046,0.0279 0.182935,0.0279 0.07131,0 0.148828,-0.0202 0.07752,-0.0217 0.111621,-0.0357 h 0.0155 z"
         id="path3782" />
    </g>
    <rect
       style="fill:#b3b3b3;stroke-width:0.165684"
       id="rect2299-7"
       width="17.043736"
       height="23.880011"
       x="39.764591"
       y="218.34009" />
    <g
       aria-label="My Module"
       style="font-style:normal;font-variant:normal;font-weight:normal;font-stretch:normal;font-size:4.93889px;line-height:6.61458px;font-family:'Gotham Rounded';-inkscape-font-specification:'Gotham Rounded';font-variant-ligatures:normal;font-variant-caps:normal;font-variant-numeric:normal;font-feature-settings:normal;text-align:center;letter-spacing:0px;word-spacing:0px;writing-mode:lr-tb;text-anchor:middle;display:inline;fill:#000000;fill-opacity:1;stroke:none;stroke-width:0.264583px;stroke-linecap:butt;stroke-linejoin:miter;stroke-opacity:1"
       id="text1229"
       transform="translate(0.27530568,-3.1106663)">
      <path
         d="m 3.8783293,178.67396 c 0,0.1778 0.1397,0.3175 0.3174999,0.3175 0.1778,0 0.3217334,-0.1397 0.3217334,-0.3175 v -1.4732 l 0.5630333,0.86784 c 0.067733,0.1016 0.1524,0.1651 0.2709333,0.1651 0.1185333,0 0.2032,-0.0635 0.2709333,-0.1651 l 0.5715,-0.88054 v 1.47744 c 0,0.1778 0.1439333,0.32596 0.3217333,0.32596 0.1820333,0 0.3259666,-0.14393 0.3259666,-0.32596 v -2.35374 c 0,-0.18203 -0.1439333,-0.32596 -0.3259666,-0.32596 h -0.071967 c -0.1312333,0 -0.2243666,0.055 -0.2921,0.1651 l -0.7916333,1.28693 -0.7873999,-1.2827 c -0.059267,-0.0974 -0.1566333,-0.16933 -0.2963333,-0.16933 h -0.071967 c -0.1820333,0 -0.3259666,0.14393 -0.3259666,0.32596 z"
         style="font-style:normal;font-variant:normal;font-weight:normal;font-stretch:normal;font-size:4.23333px;font-family:'Gotham Rounded';-inkscape-font-specification:'Gotham Rounded';text-align:center;text-anchor:middle;stroke-width:0.264583px"
         id="path5029" />
      <path
         d="m 7.9515894,179.6561 c 0.3852333,0 0.5757333,-0.17357 0.7662333,-0.635 l 0.7916333,-1.90077 c 0.0127,-0.0296 0.029633,-0.1016 0.029633,-0.1524 0,-0.16933 -0.1397,-0.29633 -0.3048,-0.29633 -0.1651,0 -0.2582333,0.11006 -0.3090333,0.24553 l -0.474133,1.31657 -0.4910667,-1.3208 c -0.055033,-0.1524 -0.1481666,-0.2413 -0.3090333,-0.2413 -0.1778,0 -0.3175,0.127 -0.3175,0.30903 0,0.0423 0.016933,0.10583 0.033867,0.14817 l 0.7747,1.79493 -0.021167,0.0508 c -0.059267,0.1143 -0.1143,0.13547 -0.2286,0.13547 -0.046567,0 -0.080433,-0.008 -0.1354667,-0.0254 -0.0254,-0.008 -0.055033,-0.0169 -0.1058333,-0.0169 -0.1312333,0 -0.254,0.10584 -0.254,0.26247 0,0.15663 0.1100667,0.23283 0.2032,0.2667 0.1058333,0.0381 0.2074333,0.0593 0.3513667,0.0593 z"
         style="font-style:normal;font-variant:normal;font-weight:normal;font-stretch:normal;font-size:4.23333px;font-family:'Gotham Rounded';-inkscape-font-specification:'Gotham Rounded';text-align:center;text-anchor:middle;stroke-width:0.264583px"
         id="path5031" />
      <path
         d="m 11.303198,178.67396 c 0,0.1778 0.1397,0.3175 0.3175,0.3175 0.1778,0 0.321734,-0.1397 0.321734,-0.3175 v -1.4732 l 0.563033,0.86784 c 0.06773,0.1016 0.1524,0.1651 0.270933,0.1651 0.118534,0 0.2032,-0.0635 0.270934,-0.1651 l 0.5715,-0.88054 v 1.47744 c 0,0.1778 0.143933,0.32596 0.321733,0.32596 0.182033,0 0.325966,-0.14393 0.325966,-0.32596 v -2.35374 c 0,-0.18203 -0.143933,-0.32596 -0.325966,-0.32596 h -0.07197 c -0.131233,0 -0.224366,0.055 -0.2921,0.1651 l -0.791633,1.28693 -0.7874,-1.2827 c -0.05927,-0.0974 -0.156633,-0.16933 -0.296333,-0.16933 h -0.07197 c -0.182033,0 -0.325967,0.14393 -0.325967,0.32596 z"
         style="font-style:normal;font-variant:normal;font-weight:normal;font-stretch:normal;font-size:4.23333px;font-family:'Gotham Rounded';-inkscape-font-specification:'Gotham Rounded';text-align:center;text-anchor:middle;stroke-width:0.264583px"
         id="path5033" />
      <path
         d="m 16.019925,179.01686 c 0.706967,0 1.2319,-0.52916 1.2319,-1.1811 v -0.008 c 0,-0.65194 -0.5207,-1.17264 -1.223433,-1.17264 -0.706967,0 -1.2319,0.52917 -1.2319,1.1811 v 0.008 c 0,0.65193 0.5207,1.17263 1.223433,1.17263 z m 0.0085,-0.55456 c -0.3556,0 -0.5969,-0.2921 -0.5969,-0.62654 v -0.008 c 0,-0.33444 0.220133,-0.61807 0.588433,-0.61807 0.3556,0 0.5969,0.2921 0.5969,0.62653 v 0.008 c 0,0.33443 -0.220133,0.61807 -0.588433,0.61807 z"
         style="font-style:normal;font-variant:normal;font-weight:normal;font-stretch:normal;font-size:4.23333px;font-family:'Gotham Rounded';-inkscape-font-specification:'Gotham Rounded';text-align:center;text-anchor:middle;stroke-width:0.264583px"
         id="path5035" />
      <path
         d="m 19.999523,176.17206 c 0,-0.1778 -0.143933,-0.32173 -0.321733,-0.32173 -0.1778,0 -0.321733,0.14393 -0.321733,0.32173 v 0.82127 c -0.1524,-0.18203 -0.364067,-0.33867 -0.706967,-0.33867 -0.537633,0 -1.032933,0.41487 -1.032933,1.17264 v 0.008 c 0,0.75777 0.503766,1.17264 1.032933,1.17264 0.334433,0 0.550333,-0.15664 0.706967,-0.3683 v 0.0296 c 0,0.1778 0.143933,0.32173 0.321733,0.32173 0.1778,0 0.321733,-0.14393 0.321733,-0.32173 z m -1.185333,1.0287 c 0.300567,0 0.550333,0.24977 0.550333,0.62654 v 0.008 c 0,0.37677 -0.249766,0.62654 -0.550333,0.62654 -0.300567,0 -0.554567,-0.24977 -0.554567,-0.62654 v -0.008 c 0,-0.381 0.254,-0.62654 0.554567,-0.62654 z"
         style="font-style:normal;font-variant:normal;font-weight:normal;font-stretch:normal;font-size:4.23333px;font-family:'Gotham Rounded';-inkscape-font-specification:'Gotham Rounded';text-align:center;text-anchor:middle;stroke-width:0.264583px"
         id="path5037" />
      <path
         d="m 22.640196,176.99333 c 0,-0.1778 -0.143933,-0.32173 -0.321733,-0.32173 -0.1778,0 -0.321733,0.14393 -0.321733,0.32173 v 0.96943 c 0,0.3048 -0.156634,0.46144 -0.402167,0.46144 -0.245533,0 -0.389467,-0.15664 -0.389467,-0.46144 v -0.96943 c 0,-0.1778 -0.143933,-0.32173 -0.321733,-0.32173 -0.1778,0 -0.321733,0.14393 -0.321733,0.32173 v 1.17263 c 0,0.5207 0.283633,0.84244 0.770466,0.84244 0.325967,0 0.516467,-0.17357 0.664634,-0.36407 v 0.0254 c 0,0.1778 0.143933,0.32173 0.321733,0.32173 0.1778,0 0.321733,-0.14393 0.321733,-0.32173 z"
         style="font-style:normal;font-variant:normal;font-weight:normal;font-stretch:normal;font-size:4.23333px;font-family:'Gotham Rounded';-inkscape-font-specification:'Gotham Rounded';text-align:center;text-anchor:middle;stroke-width:0.264583px"
         id="path5039" />
      <path
         d="m 23.245762,178.66973 c 0,0.1778 0.143933,0.32173 0.321733,0.32173 0.1778,0 0.321734,-0.14393 0.321734,-0.32173 v -2.49767 c 0,-0.1778 -0.143934,-0.32173 -0.321734,-0.32173 -0.1778,0 -0.321733,0.14393 -0.321733,0.32173 z"
         style="font-style:normal;font-variant:normal;font-weight:normal;font-stretch:normal;font-size:4.23333px;font-family:'Gotham Rounded';-inkscape-font-specification:'Gotham Rounded';text-align:center;text-anchor:middle;stroke-width:0.264583px"
         id="path5041" />
      <path
         d="m 25.018403,177.65373 c 0.0508,-0.2921 0.224367,-0.4826 0.491067,-0.4826 0.270933,0 0.440266,0.19473 0.478366,0.4826 z m 1.341967,1.08797 c 0.04657,-0.0423 0.08467,-0.10584 0.08467,-0.1905 0,-0.14394 -0.105833,-0.254 -0.249766,-0.254 -0.06773,0 -0.110067,0.0169 -0.156634,0.0508 -0.131233,0.0974 -0.2794,0.1524 -0.4572,0.1524 -0.287866,0 -0.491066,-0.1524 -0.554566,-0.4445 h 1.274233 c 0.169333,0 0.300567,-0.12277 0.300567,-0.30904 0,-0.4699 -0.334434,-1.0922 -1.0922,-1.0922 -0.6604,0 -1.121834,0.5334 -1.121834,1.1811 v 0.008 c 0,0.69427 0.503767,1.17263 1.185334,1.17263 0.3302,0 0.588433,-0.10583 0.7874,-0.27516 z"
         style="font-style:normal;font-variant:normal;font-weight:normal;font-stretch:normal;font-size:4.23333px;font-family:'Gotham Rounded';-inkscape-font-specification:'Gotham Rounded';text-align:center;text-anchor:middle;stroke-width:0.264583px"
         id="path5043" />
    </g>
    <g
       aria-label="Next"
       id="text2119"
       style="font-size:3.175px;stroke-width:0.264583">
      <path
         d="M 7.5019551,187.0132 H 7.1221333 l -1.0945068,-2.06499 v 2.06499 H 5.7408223 v -2.30839 h 0.4759399 l 0.9983887,1.88516 v -1.88516 h 0.2868042 z"
         id="path4111" />
      <path
         d="M 9.5421407,186.17759 H 8.2662496 q 0,0.15968 0.048059,0.27905 0.048059,0.11783 0.1317749,0.19379 0.080615,0.0744 0.190686,0.11162 0.1116211,0.0372 0.2449463,0.0372 0.1767334,0 0.3550171,-0.0698 0.179834,-0.0713 0.2557983,-0.13953 h 0.015503 v 0.31781 q -0.1472779,0.062 -0.3007569,0.10387 -0.153479,0.0419 -0.3224609,0.0419 -0.4309815,0 -0.6728272,-0.23255 -0.2418457,-0.23409 -0.2418457,-0.66352 0,-0.42478 0.2309937,-0.67438 0.2325439,-0.2496 0.6108154,-0.2496 0.3503662,0 0.539502,0.20464 0.190686,0.20464 0.190686,0.58136 z m -0.2837036,-0.22324 q -0.00155,-0.22944 -0.116272,-0.35502 -0.1131714,-0.12557 -0.3457153,-0.12557 -0.2340942,0 -0.3736206,0.13797 -0.1379761,0.13798 -0.1565796,0.34262 z"
         id="path4113" />
      <path
         d="m 11.483107,187.0132 h -0.367419 l -0.491443,-0.66508 -0.494543,0.66508 H 9.7901874 l 0.6759276,-0.86351 -0.6697265,-0.86817 h 0.3674195 l 0.488342,0.65423 0.489893,-0.65423 h 0.341064 l -0.680578,0.85266 z"
         id="path4115" />
      <path
         d="m 12.762099,186.9977 q -0.08216,0.0217 -0.179834,0.0357 -0.09612,0.014 -0.172082,0.014 -0.2651,0 -0.403076,-0.14263 -0.137976,-0.14263 -0.137976,-0.45734 v -0.92087 h -0.196888 v -0.24495 h 0.196888 v -0.49764 h 0.291455 v 0.49764 h 0.601513 v 0.24495 h -0.601513 v 0.7891 q 0,0.13642 0.0062,0.21394 0.0062,0.076 0.04341,0.14262 0.03411,0.062 0.09302,0.0915 0.06046,0.0279 0.182934,0.0279 0.07131,0 0.148828,-0.0202 0.07752,-0.0217 0.111621,-0.0357 h 0.0155 z"
         id="path4117" />
    </g>
    <rect
       style="fill:#b3b3b3;stroke-width:0.241882"
       id="rect2299"
       width="30.008318"
       height="28.907095"
       x="5.1056147"
       y="213.09592" />
    <g
       aria-label="1V/Oct"
       id="text2563-0"
       style="font-size:3.175px;fill:#1a1a1a;stroke-width:0.264583">
      <path
         d="m 22.46534,218.39806 h -1.249536 v -0.23565 h 0.480591 v -1.54719 h -0.480591 v -0.21084 q 0.09767,0 0.209289,-0.0155 0.111622,-0.0171 0.168982,-0.0481 0.07131,-0.0388 0.111621,-0.0977 0.04186,-0.0605 0.04806,-0.16123 h 0.240295 v 2.08049 h 0.471289 z"
         id="path3852" />
      <path
         d="m 24.933406,216.08967 -0.840258,2.30839 H 23.68387 l -0.840258,-2.30839 h 0.328662 l 0.723986,2.03088 0.723987,-2.03088 z"
         id="path3854" />
      <path
         d="m 26.306966,215.9858 -1.11156,2.88355 h -0.268201 l 1.106909,-2.88355 z"
         id="path3856" />
      <path
         d="m 28.44637,216.35477 q 0.141077,0.15503 0.215491,0.37982 0.07596,0.22479 0.07596,0.51005 0,0.28525 -0.07751,0.51159 -0.07597,0.2248 -0.213941,0.37518 -0.142627,0.15658 -0.337964,0.23564 -0.193786,0.0791 -0.443384,0.0791 -0.243396,0 -0.443383,-0.0806 -0.198438,-0.0806 -0.337964,-0.23409 -0.139527,-0.15348 -0.215491,-0.37673 -0.07441,-0.22324 -0.07441,-0.51004 0,-0.28216 0.07441,-0.5054 0.07441,-0.22479 0.217041,-0.38447 0.136426,-0.15193 0.337964,-0.23254 0.203088,-0.0806 0.441833,-0.0806 0.248047,0 0.444935,0.0822 0.198437,0.0806 0.336413,0.23099 z m -0.02791,0.88987 q 0,-0.44959 -0.201538,-0.69298 -0.201538,-0.24495 -0.550354,-0.24495 -0.351917,0 -0.553455,0.24495 -0.199988,0.24339 -0.199988,0.69298 0,0.45423 0.204639,0.69608 0.204639,0.2403 0.548804,0.2403 0.344165,0 0.547253,-0.2403 0.204639,-0.24185 0.204639,-0.69608 z"
         id="path3858" />
      <path
         d="m 30.481905,218.28954 q -0.145728,0.0698 -0.277503,0.10852 -0.130224,0.0388 -0.277502,0.0388 -0.187586,0 -0.344165,-0.0543 -0.15658,-0.0558 -0.268201,-0.16743 -0.113171,-0.11162 -0.175183,-0.28215 -0.06201,-0.17053 -0.06201,-0.39843 0,-0.42478 0.232544,-0.66662 0.234094,-0.24185 0.617017,-0.24185 0.148828,0 0.291455,0.0419 0.144177,0.0419 0.26355,0.10232 v 0.32401 h -0.0155 q -0.133326,-0.10387 -0.275952,-0.15968 -0.141077,-0.0558 -0.275953,-0.0558 -0.248047,0 -0.392224,0.16743 -0.142627,0.16588 -0.142627,0.48834 0,0.31316 0.139527,0.48214 0.141076,0.16744 0.395324,0.16744 0.08837,0 0.179834,-0.0233 0.09147,-0.0233 0.164331,-0.0605 0.06356,-0.0326 0.119373,-0.0682 0.05581,-0.0372 0.08837,-0.0636 h 0.0155 z"
         id="path3860" />
      <path
         d="m 31.754696,218.38255 q -0.08217,0.0217 -0.179834,0.0357 -0.09612,0.014 -0.172083,0.014 -0.2651,0 -0.403076,-0.14262 -0.137976,-0.14263 -0.137976,-0.45734 v -0.92087 H 30.66484 v -0.24495 h 0.196887 v -0.49765 h 0.291455 v 0.49765 h 0.601514 v 0.24495 h -0.601514 v 0.78909 q 0,0.13643 0.0062,0.21394 0.0062,0.076 0.04341,0.14263 0.03411,0.062 0.09302,0.0915 0.06046,0.0279 0.182935,0.0279 0.07131,0 0.148828,-0.0202 0.07751,-0.0217 0.111621,-0.0357 h 0.0155 z"
         id="path3862" />
    </g>
    <g
       aria-label="Gate"
       id="text2563"
       style="font-size:3.175px;fill:#1a1a1a;stroke-width:0.264583">
      <path
         d="m 10.137086,218.11331 q -0.1891361,0.0868 -0.4139286,0.15193 -0.2232422,0.0636 -0.4325318,0.0636 -0.2697509,0 -0.4945434,-0.0744 -0.2247925,-0.0744 -0.3829224,-0.22324 -0.1596801,-0.15038 -0.2464965,-0.37517 -0.086816,-0.22635 -0.086816,-0.52865 0,-0.55346 0.3224609,-0.87282 0.3240112,-0.32091 0.8883178,-0.32091 0.1968873,0 0.4015259,0.0481 0.206189,0.0465 0.4433835,0.15968 v 0.36432 h -0.02791 q -0.04806,-0.0372 -0.1395263,-0.0977 -0.091467,-0.0605 -0.179834,-0.10077 -0.1069702,-0.0481 -0.243396,-0.0791 -0.1348755,-0.0326 -0.306958,-0.0326 -0.3875732,0 -0.613916,0.2496 -0.2247925,0.24804 -0.2247925,0.67282 0,0.44804 0.2356445,0.69764 0.2356446,0.24804 0.6418213,0.24804 0.1488281,0 0.296106,-0.0295 0.1488281,-0.0295 0.2604492,-0.076 v -0.56585 H 9.2146613 v -0.26976 h 0.9224247 z"
         id="path3843" />
      <path
         d="m 11.995887,218.28384 h -0.289905 v -0.18448 q -0.03876,0.0264 -0.10542,0.0744 -0.06511,0.0465 -0.127124,0.0744 -0.07286,0.0357 -0.167432,0.0589 -0.09457,0.0248 -0.221691,0.0248 -0.234095,0 -0.396875,-0.15503 -0.162781,-0.15503 -0.162781,-0.39532 0,-0.19689 0.08372,-0.31781 0.08527,-0.12247 0.241845,-0.19224 0.15813,-0.0698 0.379822,-0.0946 0.221692,-0.0248 0.47594,-0.0372 v -0.045 q 0,-0.0992 -0.03566,-0.16433 -0.03411,-0.0651 -0.09922,-0.10232 -0.06201,-0.0357 -0.148829,-0.0481 -0.08682,-0.0124 -0.181384,-0.0124 -0.114722,0 -0.255798,0.031 -0.141077,0.0295 -0.291455,0.0868 h -0.0155 v -0.29611 q 0.08527,-0.0232 0.246496,-0.0512 0.161231,-0.0279 0.31781,-0.0279 0.182935,0 0.317811,0.031 0.136425,0.0295 0.235644,0.10232 0.09767,0.0713 0.148828,0.18449 0.05116,0.11317 0.05116,0.2806 z m -0.289905,-0.42633 v -0.48214 q -0.133325,0.008 -0.314709,0.0233 -0.179834,0.0155 -0.285254,0.045 -0.125574,0.0357 -0.203089,0.11162 -0.07751,0.0744 -0.07751,0.20619 0,0.14882 0.08992,0.22479 0.08992,0.0744 0.274401,0.0744 0.153479,0 0.280604,-0.0589 0.127124,-0.0605 0.235644,-0.14418 z"
         id="path3845" />
      <path
         d="m 13.456263,218.26834 q -0.08216,0.0217 -0.179834,0.0357 -0.09612,0.0139 -0.172082,0.0139 -0.265101,0 -0.403077,-0.14263 -0.137976,-0.14262 -0.137976,-0.45733 v -0.92088 h -0.196887 v -0.24494 h 0.196887 v -0.49765 h 0.291455 v 0.49765 h 0.601514 v 0.24494 h -0.601514 v 0.7891 q 0,0.13643 0.0062,0.21394 0.0062,0.076 0.04341,0.14263 0.03411,0.062 0.09302,0.0915 0.06046,0.0279 0.182935,0.0279 0.07131,0 0.148828,-0.0202 0.07752,-0.0217 0.111621,-0.0357 h 0.0155 z"
         id="path3847" />
      <path
         d="m 15.257703,217.44824 h -1.275891 q 0,0.15968 0.04806,0.27905 0.04806,0.11782 0.131775,0.19379 0.08061,0.0744 0.190686,0.11162 0.111621,0.0372 0.244946,0.0372 0.176734,0 0.355018,-0.0698 0.179834,-0.0713 0.255798,-0.13953 h 0.0155 v 0.31781 q -0.147278,0.062 -0.300757,0.10387 -0.153479,0.0419 -0.322461,0.0419 -0.430981,0 -0.672827,-0.23254 -0.241846,-0.2341 -0.241846,-0.66353 0,-0.42478 0.230994,-0.67438 0.232544,-0.24959 0.610815,-0.24959 0.350367,0 0.539502,0.20464 0.190686,0.20464 0.190686,0.58136 z M 14.974,217.22499 q -0.0016,-0.22944 -0.116272,-0.35501 -0.113172,-0.12558 -0.345716,-0.12558 -0.234094,0 -0.37362,0.13798 -0.137976,0.13798 -0.15658,0.34261 z"
         id="path3849" />
    </g>
    <g
       aria-label="+"
       id="text2772"
       style="font-weight:bold;font-size:7.05556px;-inkscape-font-specification:'sans-serif, Bold';fill:#808080;stroke-width:0.264583">
      <path
         d="m 22.036213,246.58504 h -1.836237 v 1.81901 h -0.943957 v -1.81901 h -1.836237 v -0.92329 h 1.836237 v -1.81901 h 0.943957 v 1.81901 h 1.836237 z"
         id="path3865" />
    </g>
    <g
       aria-label="-"
       id="text2776"
       style="font-weight:bold;font-size:7.05556px;-inkscape-font-specification:'sans-serif, Bold';fill:#808080;stroke-width:0.264583">
      <path
         d="m 49.309652,246.35489 h -2.628609 v -0.99219 h 2.628609 z"
         id="path3868" />
    </g>
  </g>
  <g
     inkscape:groupmode="layer"
     id="layer2"
     inkscape:label="components">
    <circle
       style="display:inline;vector-effect:none;fill:#ff0000;fill-opacity:1;fill-rule:evenodd;stroke:none;stroke-width:1;stroke-linecap:butt;stroke-linejoin:miter;stroke-miterlimit:4;stroke-dasharray:none;stroke-dashoffset:0;stroke-opacity:1;paint-order:normal"
       id="audioOut1"
       cx="22.896729"
       cy="112.04941"
       r="4"
       inkscape:label="audioOut1" />
    <circle
       style="display:inline;vector-effect:none;fill:#ff0000;fill-opacity:1;fill-rule:evenodd;stroke:none;stroke-width:1;stroke-linecap:butt;stroke-linejoin:miter;stroke-miterlimit:4;stroke-dasharray:none;stroke-dashoffset:0;stroke-opacity:1;paint-order:normal"
       id="removeNoteGate"
       cx="48.081993"
       cy="57.810726"
       r="4"
       inkscape:label="removeNoteGate" />
    <circle
       style="display:inline;vector-effect:none;fill:#ff0000;fill-opacity:1;fill-rule:evenodd;stroke:none;stroke-width:1;stroke-linecap:butt;stroke-linejoin:miter;stroke-miterlimit:4;stroke-dasharray:none;stroke-dashoffset:0;stroke-opacity:1;paint-order:normal"
       id="addNoteGate"
       cx="11.988259"
       cy="58.086021"
       r="4"
       inkscape:label="addNoteGate" />
    <circle
       style="display:inline;vector-effect:none;fill:#ff0000;fill-opacity:1;fill-rule:evenodd;stroke:none;stroke-width:1;stroke-linecap:butt;stroke-linejoin:miter;stroke-miterlimit:4;stroke-dasharray:none;stroke-dashoffset:0;stroke-opacity:1;paint-order:normal"
       id="addNoteCV"
       cx="27.130066"
       cy="57.810726"
       r="4"
       inkscape:label="addNoteCV" />
    <circle
       style="display:inline;vector-effect:none;fill:#ff0000;fill-opacity:1;fill-rule:evenodd;stroke:none;stroke-width:0.499999;stroke-linecap:butt;stroke-linejoin:miter;stroke-miterlimit:4;stroke-dasharray:none;stroke-dashoffset:0;stroke-opacity:1;paint-order:normal"
       id="removeNoteButton"
       cx="48.305878"
       cy="68.199486"
       inkscape:label="removeNoteButton"
       r="2" />
    <circle
       style="display:inline;vector-effect:none;fill:#ff0000;fill-opacity:1;fill-rule:evenodd;stroke:none;stroke-width:0.499999;stroke-linecap:butt;stroke-linejoin:miter;stroke-miterlimit:4;stroke-dasharray:none;stroke-dashoffset:0;stroke-opacity:1;paint-order:normal"
       id="addNoteButton"
       cx="11.988259"
       cy="67.721718"
       inkscape:label="addNoteButton"
       r="2" />
    <circle
       style="display:inline;vector-effect:none;fill:#ff0000;fill-opacity:1;fill-rule:evenodd;stroke:none;stroke-width:1;stroke-linecap:butt;stroke-linejoin:miter;stroke-miterlimit:4;stroke-dasharray:none;stroke-dashoffset:0;stroke-opacity:1;paint-order:normal"
       id="removeChordGate"
       cx="52.587299"
       cy="25.296406"
       r="4"
       inkscape:label="removeChordGate" />
    <circle
       style="display:inline;vector-effect:none;fill:#ff0000;fill-opacity:1;fill-rule:evenodd;stroke:none;stroke-width:0.499999;stroke-linecap:butt;stroke-linejoin:miter;stroke-miterlimit:4;stroke-dasharray:none;stroke-dashoffset:0;stroke-opacity:1;paint-order:normal"
       id="removeChordButton"
       cx="52.841167"
       cy="34.213413"
       inkscape:label="removeChordButton"
       r="2" />
    <circle
       style="display:inline;vector-effect:none;fill:#ff0000;fill-opacity:1;fill-rule:evenodd;stroke:none;stroke-width:1;stroke-linecap:butt;stroke-linejoin:miter;stroke-miterlimit:4;stroke-dasharray:none;stroke-dashoffset:0;stroke-opacity:1;paint-order:normal"
       id="addChordGate"
       cx="40.805958"
       cy="25.358067"
       r="4"
       inkscape:label="addChordGate" />
    <circle
       style="display:inline;vector-effect:none;fill:#ff0000;fill-opacity:1;fill-rule:evenodd;stroke:none;stroke-width:0.499999;stroke-linecap:butt;stroke-linejoin:miter;stroke-miterlimit:4;stroke-dasharray:none;stroke-dashoffset:0;stroke-opacity:1;paint-order:normal"
       id="addChordButton"
       cx="41.059826"
       cy="34.275074"
       inkscape:label="addChordButton"
       r="2" />
    <circle
       style="display:inline;vector-effect:none;fill:#ff0000;fill-opacity:1;fill-rule:evenodd;stroke:none;stroke-width:1;stroke-linecap:butt;stroke-linejoin:miter;stroke-miterlimit:4;stroke-dasharray:none;stroke-dashoffset:0;stroke-opacity:1;paint-order:normal"
       id="resetGate"
       cx="21.166649"
       cy="25.32732"
       r="4"
       inkscape:label="resetGate" />
    <circle
       style="display:inline;vector-effect:none;fill:#ff0000;fill-opacity:1;fill-rule:evenodd;stroke:none;stroke-width:0.499999;stroke-linecap:butt;stroke-linejoin:miter;stroke-miterlimit:4;stroke-dasharray:none;stroke-dashoffset:0;stroke-opacity:1;paint-order:normal"
       id="resetButton"
       cx="21.420517"
       cy="34.244328"
       inkscape:label="resetButton"
       r="2" />
    <circle
       style="display:inline;vector-effect:none;fill:#ff0000;fill-opacity:1;fill-rule:evenodd;stroke:none;stroke-width:1;stroke-linecap:butt;stroke-linejoin:miter;stroke-miterlimit:4;stroke-dasharray:none;stroke-dashoffset:0;stroke-opacity:1;paint-order:normal"
       id="nextChordGate"
       cx="9.3853159"
       cy="25.388979"
       r="4"
       inkscape:label="nextChordGate" />
    <circle
       style="display:inline;vector-effect:none;fill:#ff0000;fill-opacity:1;fill-rule:evenodd;stroke:none;stroke-width:0.499999;stroke-linecap:butt;stroke-linejoin:miter;stroke-miterlimit:4;stroke-dasharray:none;stroke-dashoffset:0;stroke-opacity:1;paint-order:normal"
       id="nextChordButton"
       cx="9.639184"
       cy="34.305988"
       inkscape:label="nextChordButton"
       r="2" />
    <circle
       style="display:inline;vector-effect:none;fill:#ff0000;fill-opacity:1;fill-rule:evenodd;stroke:none;stroke-width:1;stroke-linecap:butt;stroke-linejoin:miter;stroke-miterlimit:4;stroke-dasharray:none;stroke-dashoffset:0;stroke-opacity:1;paint-order:normal"
       id="audioOut2"
       cx="37.835415"
       cy="112.18333"
       r="4"
       inkscape:label="audioOut2" />
    <circle
       style="display:inline;vector-effect:none;fill:#ff0000;fill-opacity:1;fill-rule:evenodd;stroke:none;stroke-width:1;stroke-linecap:butt;stroke-linejoin:miter;stroke-miterlimit:4;stroke-dasharray:none;stroke-dashoffset:0;stroke-opacity:1;paint-order:normal"
       id="detune"
       cx="30.162498"
       cy="93.927086"
       r="4"
       inkscape:label="detune" />
  </g>
</svg>
